<?xml version="1.0" standalone="no"?>
<!DOCTYPE svg PUBLIC "-//W3C//DTD SVG 20010904//EN"
 "http://www.w3.org/TR/2001/REC-SVG-20010904/DTD/svg10.dtd">
<svg version="1.0" xmlns="http://www.w3.org/2000/svg"
 width="290.000000pt" height="179.000000pt" viewBox="0 0 290.000000 179.000000"
 preserveAspectRatio="xMidYMid meet">

<g transform="translate(0.000000,179.000000) scale(0.100000,-0.100000)"
fill="#000000" stroke="none">
<path d="M1130 1600 c-22 -44 -31 -48 -50 -25 -7 8 -28 15 -47 15 -27 0 -43
-8 -70 -35 -22 -22 -33 -41 -29 -51 3 -8 2 -12 -3 -9 -13 7 -23 -28 -15 -50 5
-13 4 -16 -5 -11 -9 6 -11 0 -8 -23 3 -17 1 -31 -4 -31 -5 0 -9 -17 -9 -39 0
-59 12 -131 21 -131 5 0 15 16 23 35 8 19 19 35 24 35 12 0 12 -81 0 -100 -6
-11 -7 -8 -4 10 3 14 3 19 0 12 -3 -6 -10 -10 -15 -7 -5 4 -6 -1 -3 -10 4 -8
-1 -26 -10 -40 -9 -13 -13 -32 -10 -42 6 -15 4 -15 -9 2 -16 20 -16 20 -17 -1
0 -23 22 -48 33 -37 4 3 7 15 7 25 0 24 6 23 42 -7 84 -70 177 15 198 182 6
43 7 79 2 81 -4 1 -6 20 -4 42 2 23 0 40 -6 40 -6 0 -8 10 -4 22 3 14 1 19 -6
14 -13 -8 -2 33 23 86 15 30 16 42 7 63 -16 35 -28 31 -52 -15z m41 -9 c-24
-55 -67 -131 -74 -131 -5 0 -7 19 -5 43 3 39 1 43 -32 59 -19 10 -28 18 -19
18 9 0 28 -9 42 -20 l26 -21 17 33 c25 50 36 61 45 47 4 -7 4 -19 0 -28z
m-109 -71 c30 -64 17 -217 -17 -204 -7 3 -16 0 -20 -6 -10 -17 -35 8 -35 35 0
12 -7 28 -15 35 -12 10 -15 9 -15 -4 0 -10 -4 -14 -10 -11 -5 3 -10 25 -10 48
0 28 3 37 9 28 13 -20 28 -6 33 29 4 28 -2 35 -25 31 -5 -1 -5 4 -1 11 34 59
79 63 106 8z m61 -168 c20 -22 34 -102 18 -102 -6 0 -11 -15 -11 -34 0 -41
-29 -73 -31 -35 -2 24 -2 24 -6 2 -2 -13 -11 -23 -19 -23 -18 0 -18 10 -1 35
18 27 29 57 18 51 -5 -3 -14 1 -21 9 -19 22 6 81 27 63 9 -7 12 -22 9 -37 -3
-14 -3 -20 0 -13 3 6 9 10 14 7 14 -8 -1 33 -16 46 -15 12 -19 49 -6 49 5 0
16 -8 25 -18z m-122 -48 c10 -13 10 -17 0 -24 -9 -5 -10 -10 -2 -14 15 -10 14
-43 -3 -91 -12 -35 -36 -61 -36 -38 0 13 26 82 33 89 3 4 2 15 -4 26 -5 10 -7
23 -4 28 3 5 1 11 -5 15 -12 8 -13 25 -1 25 5 0 14 -7 22 -16z m68 -95 c-14
-28 -29 -23 -29 9 0 37 11 48 27 26 9 -12 9 -22 2 -35z m-16 -47 c9 -8 17 -20
17 -26 0 -6 -5 -4 -11 4 -8 11 -9 6 -5 -23 4 -32 2 -38 -12 -35 -12 3 -17 14
-17 40 0 20 -3 40 -7 44 -5 4 -8 11 -8 16 0 10 16 2 43 -20z m-63 -67 c11 -13
10 -14 -4 -9 -9 3 -16 10 -16 15 0 13 6 11 20 -6z"/>
<path d="M1007 1536 c-3 -8 1 -20 9 -27 13 -10 17 -10 25 2 5 8 7 19 6 24 -6
16 -34 17 -40 1z"/>
<path d="M1022 1439 c-17 -27 -15 -52 6 -66 16 -9 20 -7 29 16 8 22 6 32 -7
48 -16 20 -17 20 -28 2z"/>
<path d="M345 1610 c-4 -7 -23 -9 -51 -4 -61 9 -107 -2 -137 -32 -35 -34 -40
-67 -22 -129 12 -42 31 -70 89 -132 83 -88 96 -109 96 -152 0 -37 -23 -61 -60
-61 -42 0 -70 40 -70 101 0 57 -10 61 -51 20 -69 -70 -5 -151 119 -151 75 0
121 28 141 87 21 60 -1 108 -104 222 -76 83 -85 98 -85 132 0 44 25 65 66 55
30 -8 84 -80 84 -113 0 -41 17 -16 23 34 10 82 -15 161 -38 123z"/>
<path d="M2315 1609 c-5 -6 -26 -8 -60 -4 -70 9 -121 -8 -146 -49 -41 -67 -13
-143 96 -257 83 -87 100 -129 71 -174 -21 -32 -67 -34 -95 -4 -22 23 -35 80
-26 109 9 30 -16 25 -48 -8 -35 -37 -35 -73 2 -114 26 -29 35 -33 99 -36 60
-4 77 -1 107 18 44 27 55 47 55 100 0 56 -21 92 -106 183 -84 89 -105 134 -80
172 19 28 36 31 74 11 29 -15 72 -82 72 -112 0 -16 2 -17 10 -4 11 16 14 139
4 164 -7 18 -20 21 -29 5z"/>
<path d="M472 1578 c15 -26 19 -447 5 -485 -8 -23 -7 -23 64 -23 72 0 72 0 54
20 -16 17 -20 42 -23 140 -6 164 -5 166 63 173 31 3 72 14 93 24 46 22 78 77
68 117 -11 44 -55 56 -206 56 l-131 0 13 -22z m202 -19 c63 -29 24 -118 -51
-119 -37 0 -53 21 -53 69 0 54 46 76 104 50z"/>
<path d="M1305 1583 c23 -52 31 -445 10 -495 -6 -16 0 -18 54 -18 56 0 61 2
52 18 -5 9 -12 74 -16 143 -8 144 -1 172 43 167 21 -2 28 -10 33 -38 34 -169
43 -207 59 -246 l19 -44 66 0 67 0 -35 40 c-46 55 -83 125 -102 195 -22 86
-20 100 18 124 57 35 76 111 36 147 -18 16 -41 19 -166 22 -139 4 -145 3 -138
-15z m220 -33 c21 -18 18 -67 -5 -90 -21 -21 -74 -27 -99 -11 -20 13 -21 99
-1 112 19 12 86 5 105 -11z"/>
<path d="M1685 1589 c-13 -21 -18 -129 -6 -129 6 0 11 5 11 12 0 7 12 29 26
50 29 42 70 60 85 37 5 -8 9 -109 9 -225 0 -199 -1 -213 -21 -238 l-20 -26 87
0 c72 0 85 2 71 13 -30 23 -37 67 -37 252 0 192 7 235 38 235 23 0 66 -45 85
-90 l15 -35 1 62 c1 99 12 93 -174 93 -106 0 -166 -4 -170 -11z"/>
<path d="M910 1180 c0 -15 -5 -31 -12 -38 -9 -9 -9 -12 0 -12 19 0 34 38 23
58 -9 15 -10 14 -11 -8z"/>
<path d="M370 720 c-8 -5 -48 -10 -88 -10 -138 0 -188 -50 -186 -185 1 -96 13
-142 56 -215 41 -67 95 -106 171 -122 49 -11 59 -10 73 4 14 14 12 16 -23 22
-111 21 -182 139 -183 304 0 116 27 162 95 162 33 0 73 -40 81 -80 13 -64 37
-17 38 74 1 51 -8 63 -34 46z"/>
<path d="M2405 720 c-11 -5 -51 -9 -90 -9 -83 -1 -130 -21 -162 -70 -46 -68
-25 -246 40 -342 48 -73 145 -125 214 -117 43 5 37 23 -11 36 -108 28 -176
150 -176 314 0 158 142 207 181 62 10 -33 12 -36 21 -19 14 24 24 155 12 154
-5 0 -18 -4 -29 -9z"/>
<path d="M575 706 c-85 -38 -116 -134 -96 -296 13 -102 49 -183 95 -211 44
-27 123 -26 167 4 66 43 104 165 97 312 -4 103 -27 151 -88 183 -51 25 -128
29 -175 8z m137 -43 c28 -25 41 -107 35 -222 -7 -121 -18 -170 -51 -207 -18
-22 -28 -26 -50 -20 -38 9 -65 74 -78 192 -15 132 -1 218 43 257 34 31 67 31
101 0z"/>
<path d="M941 683 c12 -33 18 -435 6 -475 -7 -27 -7 -28 37 -28 l44 0 -10 43
c-4 23 -7 107 -6 187 l3 145 89 -165 c116 -215 112 -210 140 -210 l24 0 4 248
c3 136 8 255 12 265 7 15 2 17 -42 17 l-51 0 10 -32 c14 -44 25 -333 13 -325
-5 3 -49 84 -99 181 l-90 176 -47 0 -48 0 11 -27z"/>
<path d="M1375 693 c22 -51 28 -447 8 -499 -4 -11 6 -14 40 -14 l45 0 -9 34
c-5 19 -8 103 -7 187 l3 153 100 -184 c88 -161 104 -185 127 -188 l26 -3 4
248 c3 136 8 256 12 266 7 15 2 17 -42 17 l-51 0 10 -32 c13 -44 25 -333 13
-325 -5 3 -49 84 -99 181 l-90 176 -49 0 c-42 0 -47 -2 -41 -17z"/>
<path d="M1808 698 c9 -9 12 -76 12 -242 0 -222 -1 -230 -22 -253 l-21 -23
141 0 c134 0 142 1 156 22 17 23 22 98 8 98 -5 0 -14 -11 -20 -24 -17 -38 -54
-58 -103 -54 -53 4 -57 13 -58 156 -1 133 3 142 77 142 53 0 82 11 82 32 0 4
-27 8 -59 8 -33 0 -66 3 -75 6 -20 8 -31 66 -17 93 23 42 122 20 151 -33 7
-14 17 -26 22 -26 11 0 10 41 -3 79 l-11 31 -136 0 c-106 0 -133 -3 -124 -12z"/>
<path d="M2476 688 c-3 -13 -6 -48 -5 -78 0 -54 0 -54 13 -25 20 45 65 95 87
95 32 0 39 -42 39 -239 0 -163 -2 -191 -19 -224 l-19 -37 80 0 79 0 -20 26
c-20 25 -21 39 -21 238 0 116 4 218 10 226 7 11 15 12 37 5 24 -9 36 -22 80
-91 10 -16 12 -12 12 28 1 26 -3 58 -9 72 l-10 26 -164 0 c-161 0 -164 0 -170
-22z"/>
</g>
</svg>
